<svg width="25" height="25" viewBox="0 0 25 25" fill="none" xmlns="http://www.w3.org/2000/svg">
<path d="M12.542 2.08337C6.85449 2.08337 2.21908 6.71879 2.21908 12.4063C2.21908 14.2292 2.69824 16 3.59408 17.5625L2.13574 22.9167L7.60449 21.4792C9.11491 22.3021 10.8128 22.7396 12.542 22.7396C18.2295 22.7396 22.8649 18.1042 22.8649 12.4167C22.8649 9.65629 21.792 7.06254 19.8441 5.11462C17.8962 3.15629 15.3024 2.08337 12.542 2.08337ZM12.5524 3.82296C14.8441 3.82296 16.9899 4.71879 18.6149 6.34379C20.2295 7.96879 21.1253 10.125 21.1253 12.4167C21.1253 17.1459 17.2712 20.9896 12.542 20.9896C11.0003 20.9896 9.48991 20.5834 8.17741 19.7917L7.86491 19.6146L4.61491 20.4688L5.47949 17.3021L5.27116 16.9688C4.41699 15.625 3.95866 14.0313 3.95866 12.4063C3.96908 7.67712 7.81283 3.82296 12.5524 3.82296ZM8.88574 7.63546C8.71907 7.63546 8.43782 7.69796 8.19824 7.95837C7.96907 8.21879 7.29199 8.85421 7.29199 10.1146C7.29199 11.3855 8.21908 12.6042 8.33366 12.7813C8.47949 12.9584 10.167 15.5625 12.7607 16.6667C13.3753 16.948 13.8545 17.1042 14.2295 17.2188C14.8441 17.4167 15.4066 17.3855 15.8545 17.323C16.3545 17.25 17.3753 16.698 17.5941 16.0938C17.8128 15.4896 17.8128 14.9792 17.7503 14.8646C17.6774 14.7605 17.5107 14.698 17.2503 14.5834C16.9899 14.4375 15.7191 13.8125 15.4899 13.7292C15.2503 13.6459 15.1045 13.6042 14.9066 13.8542C14.7399 14.1146 14.2399 14.698 14.0941 14.8646C13.9378 15.0417 13.792 15.0625 13.542 14.9375C13.2712 14.8021 12.4378 14.5313 11.4587 13.6563C10.6878 12.9688 10.1774 12.125 10.0212 11.8646C9.89616 11.6146 10.0107 11.4584 10.1357 11.3438C10.2503 11.2292 10.417 11.0417 10.5212 10.8855C10.6566 10.7396 10.6982 10.625 10.7816 10.4584C10.8649 10.2813 10.8232 10.1355 10.7607 10.0105C10.6982 9.89587 10.1774 8.60421 9.95866 8.09379C9.75033 7.59379 9.54199 7.65629 9.37533 7.64587C9.22949 7.64587 9.06282 7.63546 8.88574 7.63546Z" fill="black"/>
</svg>
