<svg width="25" height="25" viewBox="0 0 25 25" fill="none" xmlns="http://www.w3.org/2000/svg">
<path d="M12.4997 11.9792C11.809 11.9792 11.1466 11.7048 10.6583 11.2165C10.1699 10.7281 9.89551 10.0657 9.89551 9.37504C9.89551 8.68437 10.1699 8.02199 10.6583 7.53362C11.1466 7.04524 11.809 6.77087 12.4997 6.77087C13.1903 6.77087 13.8527 7.04524 14.3411 7.53362C14.8295 8.02199 15.1038 8.68437 15.1038 9.37504C15.1038 9.71703 15.0365 10.0557 14.9056 10.3716C14.7747 10.6876 14.5829 10.9746 14.3411 11.2165C14.0993 11.4583 13.8122 11.6501 13.4962 11.781C13.1803 11.9118 12.8417 11.9792 12.4997 11.9792ZM12.4997 2.08337C10.5658 2.08337 8.71114 2.8516 7.34369 4.21905C5.97623 5.58651 5.20801 7.44117 5.20801 9.37504C5.20801 14.8438 12.4997 22.9167 12.4997 22.9167C12.4997 22.9167 19.7913 14.8438 19.7913 9.37504C19.7913 7.44117 19.0231 5.58651 17.6557 4.21905C16.2882 2.8516 14.4335 2.08337 12.4997 2.08337Z" fill="black"/>
</svg>
