<svg width="25" height="25" viewBox="0 0 25 25" fill="none" xmlns="http://www.w3.org/2000/svg">
<path d="M8.12468 2.08337H16.8747C20.208 2.08337 22.9163 4.79171 22.9163 8.12504V16.875C22.9163 18.4774 22.2798 20.0141 21.1468 21.1471C20.0137 22.2802 18.477 22.9167 16.8747 22.9167H8.12468C4.79134 22.9167 2.08301 20.2084 2.08301 16.875V8.12504C2.08301 6.52269 2.71954 4.98597 3.85257 3.85294C4.9856 2.71991 6.52233 2.08337 8.12468 2.08337ZM7.91634 4.16671C6.92178 4.16671 5.96795 4.5618 5.26469 5.26506C4.56143 5.96832 4.16634 6.92215 4.16634 7.91671V17.0834C4.16634 19.1563 5.84342 20.8334 7.91634 20.8334H17.083C18.0776 20.8334 19.0314 20.4383 19.7347 19.735C20.4379 19.0318 20.833 18.0779 20.833 17.0834V7.91671C20.833 5.84379 19.1559 4.16671 17.083 4.16671H7.91634ZM17.9684 5.72921C18.3138 5.72921 18.645 5.86639 18.8891 6.11058C19.1333 6.35477 19.2705 6.68596 19.2705 7.03129C19.2705 7.37663 19.1333 7.70782 18.8891 7.952C18.645 8.19619 18.3138 8.33337 17.9684 8.33337C17.6231 8.33337 17.2919 8.19619 17.0477 7.952C16.8035 7.70782 16.6663 7.37663 16.6663 7.03129C16.6663 6.68596 16.8035 6.35477 17.0477 6.11058C17.2919 5.86639 17.6231 5.72921 17.9684 5.72921ZM12.4997 7.29171C13.881 7.29171 15.2058 7.84044 16.1825 8.81719C17.1593 9.79395 17.708 11.1187 17.708 12.5C17.708 13.8814 17.1593 15.2061 16.1825 16.1829C15.2058 17.1596 13.881 17.7084 12.4997 17.7084C11.1183 17.7084 9.79358 17.1596 8.81683 16.1829C7.84008 15.2061 7.29134 13.8814 7.29134 12.5C7.29134 11.1187 7.84008 9.79395 8.81683 8.81719C9.79358 7.84044 11.1183 7.29171 12.4997 7.29171ZM12.4997 9.37504C11.6709 9.37504 10.876 9.70428 10.29 10.2903C9.70391 10.8764 9.37468 11.6712 9.37468 12.5C9.37468 13.3288 9.70391 14.1237 10.29 14.7098C10.876 15.2958 11.6709 15.625 12.4997 15.625C13.3285 15.625 14.1233 15.2958 14.7094 14.7098C15.2954 14.1237 15.6247 13.3288 15.6247 12.5C15.6247 11.6712 15.2954 10.8764 14.7094 10.2903C14.1233 9.70428 13.3285 9.37504 12.4997 9.37504Z" fill="black"/>
</svg>
