<svg width="20" height="20" viewBox="0 0 20 20" fill="none" xmlns="http://www.w3.org/2000/svg">
<path d="M0 10C0 8.68678 0.258658 7.38642 0.761205 6.17317C1.26375 4.95991 2.00035 3.85752 2.92893 2.92893C3.85752 2.00035 4.95991 1.26375 6.17316 0.761205C7.38642 0.258658 8.68678 1.19209e-06 10 1.19209e-06C12.6522 1.19209e-06 15.1957 1.05357 17.0711 2.92893C18.9464 4.8043 20 7.34784 20 10C20 11.3132 19.7413 12.6136 19.2388 13.8268C18.7362 15.0401 17.9997 16.1425 17.0711 17.0711C15.1957 18.9464 12.6522 20 10 20C7.34783 20 4.8043 18.9464 2.92893 17.0711C1.05357 15.1957 0 12.6522 0 10ZM8 15L13 10L8 5V15Z" fill="#231F20"/>
</svg>
